<mxfile host="app.diagrams.net" modified="2023-06-16T12:56:23.141Z" agent="Mozilla/5.0 (Windows NT 10.0; Win64; x64) AppleWebKit/537.36 (KHTML, like Gecko) Chrome/113.0.0.0 Safari/537.36" etag="FWzkwyCyyVjGyMxYHL_o" version="21.4.0" type="device">
  <diagram name="Page-1" id="xWvgSmEm0lFXHtQNHwIk">
    <mxGraphModel dx="2998" dy="793" grid="1" gridSize="10" guides="1" tooltips="1" connect="1" arrows="1" fold="1" page="1" pageScale="1.5" pageWidth="850" pageHeight="1100" math="0" shadow="0">
      <root>
        <mxCell id="0" />
        <mxCell id="1" parent="0" />
        <mxCell id="aen04neKzYSIUZJzR4fl-67" style="edgeStyle=orthogonalEdgeStyle;rounded=0;orthogonalLoop=1;jettySize=auto;html=1;entryX=0.5;entryY=0;entryDx=0;entryDy=0;" parent="1" source="aen04neKzYSIUZJzR4fl-1" target="aen04neKzYSIUZJzR4fl-8" edge="1">
          <mxGeometry relative="1" as="geometry">
            <Array as="points">
              <mxPoint x="10" y="130" />
              <mxPoint x="-50" y="130" />
            </Array>
          </mxGeometry>
        </mxCell>
        <mxCell id="aen04neKzYSIUZJzR4fl-71" style="edgeStyle=orthogonalEdgeStyle;rounded=0;orthogonalLoop=1;jettySize=auto;html=1;entryX=0.5;entryY=0;entryDx=0;entryDy=0;" parent="1" source="aen04neKzYSIUZJzR4fl-1" target="aen04neKzYSIUZJzR4fl-9" edge="1">
          <mxGeometry relative="1" as="geometry">
            <Array as="points">
              <mxPoint x="80" y="140" />
              <mxPoint x="80" y="140" />
            </Array>
          </mxGeometry>
        </mxCell>
        <mxCell id="aen04neKzYSIUZJzR4fl-133" style="edgeStyle=orthogonalEdgeStyle;rounded=0;orthogonalLoop=1;jettySize=auto;html=1;" parent="1" source="aen04neKzYSIUZJzR4fl-1" target="aen04neKzYSIUZJzR4fl-6" edge="1">
          <mxGeometry relative="1" as="geometry">
            <Array as="points">
              <mxPoint x="-40" y="100" />
              <mxPoint x="-230" y="100" />
            </Array>
          </mxGeometry>
        </mxCell>
        <mxCell id="aen04neKzYSIUZJzR4fl-1" value="Kinematic _Behaviour&lt;br&gt;defined the different objects" style="rounded=0;whiteSpace=wrap;html=1;" parent="1" vertex="1">
          <mxGeometry x="-60" y="10" width="160" height="60" as="geometry" />
        </mxCell>
        <mxCell id="aen04neKzYSIUZJzR4fl-33" style="edgeStyle=orthogonalEdgeStyle;rounded=0;orthogonalLoop=1;jettySize=auto;html=1;exitX=1;exitY=0.5;exitDx=0;exitDy=0;entryX=0;entryY=0.5;entryDx=0;entryDy=0;" parent="1" source="aen04neKzYSIUZJzR4fl-2" target="aen04neKzYSIUZJzR4fl-12" edge="1">
          <mxGeometry relative="1" as="geometry">
            <Array as="points">
              <mxPoint x="-160" y="600" />
              <mxPoint x="50" y="600" />
              <mxPoint x="50" y="590" />
            </Array>
          </mxGeometry>
        </mxCell>
        <mxCell id="aen04neKzYSIUZJzR4fl-34" style="edgeStyle=orthogonalEdgeStyle;rounded=0;orthogonalLoop=1;jettySize=auto;html=1;" parent="1" source="aen04neKzYSIUZJzR4fl-2" target="aen04neKzYSIUZJzR4fl-26" edge="1">
          <mxGeometry relative="1" as="geometry" />
        </mxCell>
        <mxCell id="aen04neKzYSIUZJzR4fl-81" style="edgeStyle=orthogonalEdgeStyle;rounded=0;orthogonalLoop=1;jettySize=auto;html=1;entryX=0;entryY=0.75;entryDx=0;entryDy=0;" parent="1" source="aen04neKzYSIUZJzR4fl-2" target="aen04neKzYSIUZJzR4fl-10" edge="1">
          <mxGeometry relative="1" as="geometry">
            <Array as="points">
              <mxPoint x="-80" y="660" />
              <mxPoint x="-80" y="755" />
            </Array>
          </mxGeometry>
        </mxCell>
        <mxCell id="aen04neKzYSIUZJzR4fl-2" value="Dynamic_Behaviour&lt;br&gt;Continously change&amp;nbsp; in behvaiour" style="rounded=0;whiteSpace=wrap;html=1;" parent="1" vertex="1">
          <mxGeometry x="-320" y="560" width="160" height="60" as="geometry" />
        </mxCell>
        <mxCell id="aen04neKzYSIUZJzR4fl-36" style="edgeStyle=orthogonalEdgeStyle;rounded=0;orthogonalLoop=1;jettySize=auto;html=1;exitX=1;exitY=0.5;exitDx=0;exitDy=0;entryX=0;entryY=0.5;entryDx=0;entryDy=0;" parent="1" source="aen04neKzYSIUZJzR4fl-4" target="aen04neKzYSIUZJzR4fl-1" edge="1">
          <mxGeometry relative="1" as="geometry" />
        </mxCell>
        <mxCell id="aen04neKzYSIUZJzR4fl-124" value="Start&amp;nbsp;" style="edgeLabel;html=1;align=center;verticalAlign=middle;resizable=0;points=[];" parent="aen04neKzYSIUZJzR4fl-36" vertex="1" connectable="0">
          <mxGeometry x="-0.2803" y="4" relative="1" as="geometry">
            <mxPoint x="5" y="4" as="offset" />
          </mxGeometry>
        </mxCell>
        <mxCell id="aen04neKzYSIUZJzR4fl-4" value="" style="ellipse;fillColor=strokeColor;html=1;" parent="1" vertex="1">
          <mxGeometry x="-420" y="25" width="30" height="30" as="geometry" />
        </mxCell>
        <mxCell id="aen04neKzYSIUZJzR4fl-6" value="Visual_Information" style="ellipse;whiteSpace=wrap;html=1;" parent="1" vertex="1">
          <mxGeometry x="-290" y="180" width="120" height="60" as="geometry" />
        </mxCell>
        <mxCell id="aen04neKzYSIUZJzR4fl-74" value="" style="edgeStyle=orthogonalEdgeStyle;rounded=0;orthogonalLoop=1;jettySize=auto;html=1;" parent="1" source="aen04neKzYSIUZJzR4fl-7" target="aen04neKzYSIUZJzR4fl-9" edge="1">
          <mxGeometry relative="1" as="geometry" />
        </mxCell>
        <mxCell id="aen04neKzYSIUZJzR4fl-7" value="Identification&lt;br&gt;Types of plants" style="ellipse;whiteSpace=wrap;html=1;" parent="1" vertex="1">
          <mxGeometry x="30" y="300" width="100" height="60" as="geometry" />
        </mxCell>
        <mxCell id="aen04neKzYSIUZJzR4fl-68" style="edgeStyle=orthogonalEdgeStyle;rounded=0;orthogonalLoop=1;jettySize=auto;html=1;exitX=0.5;exitY=1;exitDx=0;exitDy=0;entryX=0.5;entryY=0;entryDx=0;entryDy=0;" parent="1" source="aen04neKzYSIUZJzR4fl-8" target="aen04neKzYSIUZJzR4fl-21" edge="1">
          <mxGeometry relative="1" as="geometry" />
        </mxCell>
        <mxCell id="aen04neKzYSIUZJzR4fl-8" value="Path_planning&amp;nbsp;" style="ellipse;whiteSpace=wrap;html=1;" parent="1" vertex="1">
          <mxGeometry x="-100" y="180" width="100" height="60" as="geometry" />
        </mxCell>
        <mxCell id="aen04neKzYSIUZJzR4fl-73" style="edgeStyle=orthogonalEdgeStyle;rounded=0;orthogonalLoop=1;jettySize=auto;html=1;" parent="1" source="aen04neKzYSIUZJzR4fl-9" target="aen04neKzYSIUZJzR4fl-7" edge="1">
          <mxGeometry relative="1" as="geometry" />
        </mxCell>
        <mxCell id="aen04neKzYSIUZJzR4fl-9" value="RPosition" style="ellipse;whiteSpace=wrap;html=1;" parent="1" vertex="1">
          <mxGeometry x="30" y="180" width="100" height="60" as="geometry" />
        </mxCell>
        <mxCell id="aen04neKzYSIUZJzR4fl-82" style="edgeStyle=orthogonalEdgeStyle;rounded=0;orthogonalLoop=1;jettySize=auto;html=1;entryX=0;entryY=0.5;entryDx=0;entryDy=0;" parent="1" source="aen04neKzYSIUZJzR4fl-10" target="aen04neKzYSIUZJzR4fl-52" edge="1">
          <mxGeometry relative="1" as="geometry" />
        </mxCell>
        <mxCell id="aen04neKzYSIUZJzR4fl-10" value="Real_time system&lt;br&gt;(360 degree FOV camera)" style="rounded=0;whiteSpace=wrap;html=1;" parent="1" vertex="1">
          <mxGeometry x="5" y="740" width="120" height="60" as="geometry" />
        </mxCell>
        <mxCell id="aen04neKzYSIUZJzR4fl-80" style="edgeStyle=orthogonalEdgeStyle;rounded=0;orthogonalLoop=1;jettySize=auto;html=1;entryX=0.5;entryY=0;entryDx=0;entryDy=0;" parent="1" source="aen04neKzYSIUZJzR4fl-11" target="aen04neKzYSIUZJzR4fl-2" edge="1">
          <mxGeometry relative="1" as="geometry" />
        </mxCell>
        <mxCell id="aen04neKzYSIUZJzR4fl-11" value="Path_adapt" style="rounded=0;whiteSpace=wrap;html=1;" parent="1" vertex="1">
          <mxGeometry x="-110" y="450" width="120" height="60" as="geometry" />
        </mxCell>
        <mxCell id="aen04neKzYSIUZJzR4fl-93" style="edgeStyle=orthogonalEdgeStyle;rounded=0;orthogonalLoop=1;jettySize=auto;html=1;entryX=0;entryY=0.5;entryDx=0;entryDy=0;" parent="1" source="aen04neKzYSIUZJzR4fl-12" target="aen04neKzYSIUZJzR4fl-24" edge="1">
          <mxGeometry relative="1" as="geometry" />
        </mxCell>
        <mxCell id="aen04neKzYSIUZJzR4fl-98" style="edgeStyle=orthogonalEdgeStyle;rounded=0;orthogonalLoop=1;jettySize=auto;html=1;entryX=0;entryY=0.5;entryDx=0;entryDy=0;" parent="1" source="aen04neKzYSIUZJzR4fl-12" target="aen04neKzYSIUZJzR4fl-97" edge="1">
          <mxGeometry relative="1" as="geometry">
            <Array as="points">
              <mxPoint x="160" y="400" />
            </Array>
          </mxGeometry>
        </mxCell>
        <mxCell id="aen04neKzYSIUZJzR4fl-12" value="Control" style="rounded=0;whiteSpace=wrap;html=1;" parent="1" vertex="1">
          <mxGeometry x="100" y="560" width="120" height="60" as="geometry" />
        </mxCell>
        <mxCell id="aen04neKzYSIUZJzR4fl-123" style="edgeStyle=orthogonalEdgeStyle;rounded=0;orthogonalLoop=1;jettySize=auto;html=1;entryX=0;entryY=0.25;entryDx=0;entryDy=0;" parent="1" source="aen04neKzYSIUZJzR4fl-13" target="aen04neKzYSIUZJzR4fl-116" edge="1">
          <mxGeometry relative="1" as="geometry" />
        </mxCell>
        <mxCell id="aen04neKzYSIUZJzR4fl-13" value="Feedback&lt;br&gt;accuracy in the behaviour" style="rounded=0;whiteSpace=wrap;html=1;" parent="1" vertex="1">
          <mxGeometry x="-280" y="1010" width="150" height="50" as="geometry" />
        </mxCell>
        <mxCell id="aen04neKzYSIUZJzR4fl-121" style="edgeStyle=orthogonalEdgeStyle;rounded=0;orthogonalLoop=1;jettySize=auto;html=1;entryX=0.5;entryY=1;entryDx=0;entryDy=0;" parent="1" source="aen04neKzYSIUZJzR4fl-14" target="aen04neKzYSIUZJzR4fl-116" edge="1">
          <mxGeometry relative="1" as="geometry">
            <Array as="points">
              <mxPoint x="64" y="1200" />
              <mxPoint x="64" y="1200" />
            </Array>
          </mxGeometry>
        </mxCell>
        <mxCell id="aen04neKzYSIUZJzR4fl-14" value="Environmental Conditions&lt;br&gt;F:fogg&lt;br&gt;R-raining&lt;br&gt;D-dirt" style="rounded=0;whiteSpace=wrap;html=1;" parent="1" vertex="1">
          <mxGeometry x="-38.75" y="1190" width="200" height="70" as="geometry" />
        </mxCell>
        <mxCell id="aen04neKzYSIUZJzR4fl-122" style="edgeStyle=orthogonalEdgeStyle;rounded=0;orthogonalLoop=1;jettySize=auto;html=1;entryX=0;entryY=0.5;entryDx=0;entryDy=0;" parent="1" source="aen04neKzYSIUZJzR4fl-16" target="aen04neKzYSIUZJzR4fl-116" edge="1">
          <mxGeometry relative="1" as="geometry" />
        </mxCell>
        <mxCell id="aen04neKzYSIUZJzR4fl-16" value="Emergency" style="rounded=0;whiteSpace=wrap;html=1;" parent="1" vertex="1">
          <mxGeometry x="-265" y="1090" width="120" height="60" as="geometry" />
        </mxCell>
        <mxCell id="aen04neKzYSIUZJzR4fl-64" value="" style="edgeStyle=orthogonalEdgeStyle;rounded=0;orthogonalLoop=1;jettySize=auto;html=1;" parent="1" source="aen04neKzYSIUZJzR4fl-19" target="aen04neKzYSIUZJzR4fl-6" edge="1">
          <mxGeometry relative="1" as="geometry" />
        </mxCell>
        <mxCell id="aen04neKzYSIUZJzR4fl-19" value="Sensor-Camera" style="rounded=0;whiteSpace=wrap;html=1;" parent="1" vertex="1">
          <mxGeometry x="-290" y="340" width="120" height="50" as="geometry" />
        </mxCell>
        <mxCell id="aen04neKzYSIUZJzR4fl-79" style="edgeStyle=orthogonalEdgeStyle;rounded=0;orthogonalLoop=1;jettySize=auto;html=1;exitX=0.5;exitY=1;exitDx=0;exitDy=0;entryX=0.5;entryY=0;entryDx=0;entryDy=0;" parent="1" source="aen04neKzYSIUZJzR4fl-21" target="aen04neKzYSIUZJzR4fl-11" edge="1">
          <mxGeometry relative="1" as="geometry" />
        </mxCell>
        <mxCell id="aen04neKzYSIUZJzR4fl-21" value="Road_directions" style="rounded=0;whiteSpace=wrap;html=1;" parent="1" vertex="1">
          <mxGeometry x="-105" y="305" width="110" height="50" as="geometry" />
        </mxCell>
        <mxCell id="aen04neKzYSIUZJzR4fl-108" style="edgeStyle=orthogonalEdgeStyle;rounded=0;orthogonalLoop=1;jettySize=auto;html=1;entryX=0.5;entryY=0;entryDx=0;entryDy=0;" parent="1" source="aen04neKzYSIUZJzR4fl-24" target="aen04neKzYSIUZJzR4fl-40" edge="1">
          <mxGeometry relative="1" as="geometry">
            <Array as="points">
              <mxPoint x="719" y="610" />
              <mxPoint x="610" y="610" />
            </Array>
          </mxGeometry>
        </mxCell>
        <mxCell id="aen04neKzYSIUZJzR4fl-113" style="edgeStyle=orthogonalEdgeStyle;rounded=0;orthogonalLoop=1;jettySize=auto;html=1;" parent="1" source="aen04neKzYSIUZJzR4fl-24" target="aen04neKzYSIUZJzR4fl-39" edge="1">
          <mxGeometry relative="1" as="geometry" />
        </mxCell>
        <mxCell id="aen04neKzYSIUZJzR4fl-24" value="Measure&lt;br&gt;Control the model by using X,Y coordinates of target&lt;br&gt;R: x ,y value" style="rounded=0;whiteSpace=wrap;html=1;" parent="1" vertex="1">
          <mxGeometry x="638" y="470" width="162" height="70" as="geometry" />
        </mxCell>
        <mxCell id="aen04neKzYSIUZJzR4fl-25" value="Speed&lt;br&gt;(D=VXT)&lt;br&gt;D:distance&lt;br&gt;V:velocity&lt;br&gt;T:time" style="rounded=0;whiteSpace=wrap;html=1;" parent="1" vertex="1">
          <mxGeometry x="510" y="365" width="150" height="80" as="geometry" />
        </mxCell>
        <mxCell id="aen04neKzYSIUZJzR4fl-28" value="" style="edgeStyle=orthogonalEdgeStyle;rounded=0;orthogonalLoop=1;jettySize=auto;html=1;" parent="1" source="aen04neKzYSIUZJzR4fl-26" target="aen04neKzYSIUZJzR4fl-27" edge="1">
          <mxGeometry relative="1" as="geometry" />
        </mxCell>
        <mxCell id="aen04neKzYSIUZJzR4fl-29" value="" style="edgeStyle=orthogonalEdgeStyle;rounded=0;orthogonalLoop=1;jettySize=auto;html=1;" parent="1" source="aen04neKzYSIUZJzR4fl-26" target="aen04neKzYSIUZJzR4fl-27" edge="1">
          <mxGeometry relative="1" as="geometry" />
        </mxCell>
        <mxCell id="aen04neKzYSIUZJzR4fl-38" style="edgeStyle=orthogonalEdgeStyle;rounded=0;orthogonalLoop=1;jettySize=auto;html=1;" parent="1" source="aen04neKzYSIUZJzR4fl-26" target="aen04neKzYSIUZJzR4fl-37" edge="1">
          <mxGeometry relative="1" as="geometry" />
        </mxCell>
        <mxCell id="aen04neKzYSIUZJzR4fl-26" value="Obstacle" style="rounded=0;whiteSpace=wrap;html=1;" parent="1" vertex="1">
          <mxGeometry x="-300" y="780" width="120" height="50" as="geometry" />
        </mxCell>
        <mxCell id="aen04neKzYSIUZJzR4fl-27" value="Visualisation problem&amp;nbsp;" style="whiteSpace=wrap;html=1;rounded=0;" parent="1" vertex="1">
          <mxGeometry x="-310" y="920" width="140" height="60" as="geometry" />
        </mxCell>
        <mxCell id="aen04neKzYSIUZJzR4fl-37" value="no data receive" style="whiteSpace=wrap;html=1;rounded=0;" parent="1" vertex="1">
          <mxGeometry x="-130" y="920" width="120" height="60" as="geometry" />
        </mxCell>
        <mxCell id="aen04neKzYSIUZJzR4fl-95" style="edgeStyle=orthogonalEdgeStyle;rounded=0;orthogonalLoop=1;jettySize=auto;html=1;entryX=0.5;entryY=0;entryDx=0;entryDy=0;" parent="1" source="aen04neKzYSIUZJzR4fl-39" target="aen04neKzYSIUZJzR4fl-10" edge="1">
          <mxGeometry relative="1" as="geometry" />
        </mxCell>
        <mxCell id="aen04neKzYSIUZJzR4fl-39" value="Plant_available&lt;br&gt;" style="rounded=0;whiteSpace=wrap;html=1;" parent="1" vertex="1">
          <mxGeometry x="740" y="683.75" width="140" height="62.5" as="geometry" />
        </mxCell>
        <mxCell id="aen04neKzYSIUZJzR4fl-40" value="Running" style="rounded=0;whiteSpace=wrap;html=1;" parent="1" vertex="1">
          <mxGeometry x="550" y="640" width="120" height="60" as="geometry" />
        </mxCell>
        <mxCell id="aen04neKzYSIUZJzR4fl-120" style="edgeStyle=orthogonalEdgeStyle;rounded=0;orthogonalLoop=1;jettySize=auto;html=1;entryX=0.75;entryY=1;entryDx=0;entryDy=0;" parent="1" source="aen04neKzYSIUZJzR4fl-46" target="aen04neKzYSIUZJzR4fl-116" edge="1">
          <mxGeometry relative="1" as="geometry" />
        </mxCell>
        <mxCell id="aen04neKzYSIUZJzR4fl-46" value="Plant in right direct/left direction/ahead" style="rounded=0;whiteSpace=wrap;html=1;" parent="1" vertex="1">
          <mxGeometry x="140" y="1100" width="130" height="50" as="geometry" />
        </mxCell>
        <mxCell id="aen04neKzYSIUZJzR4fl-88" style="edgeStyle=orthogonalEdgeStyle;rounded=0;orthogonalLoop=1;jettySize=auto;html=1;entryX=0.5;entryY=0;entryDx=0;entryDy=0;" parent="1" source="aen04neKzYSIUZJzR4fl-52" target="aen04neKzYSIUZJzR4fl-85" edge="1">
          <mxGeometry relative="1" as="geometry">
            <Array as="points">
              <mxPoint x="330" y="840" />
              <mxPoint x="210" y="840" />
            </Array>
          </mxGeometry>
        </mxCell>
        <mxCell id="aen04neKzYSIUZJzR4fl-91" style="edgeStyle=orthogonalEdgeStyle;rounded=0;orthogonalLoop=1;jettySize=auto;html=1;entryX=0.25;entryY=0;entryDx=0;entryDy=0;" parent="1" source="aen04neKzYSIUZJzR4fl-52" target="aen04neKzYSIUZJzR4fl-84" edge="1">
          <mxGeometry relative="1" as="geometry" />
        </mxCell>
        <mxCell id="aen04neKzYSIUZJzR4fl-92" style="edgeStyle=orthogonalEdgeStyle;rounded=0;orthogonalLoop=1;jettySize=auto;html=1;exitX=0.5;exitY=1;exitDx=0;exitDy=0;entryX=0.5;entryY=0;entryDx=0;entryDy=0;" parent="1" source="aen04neKzYSIUZJzR4fl-52" target="aen04neKzYSIUZJzR4fl-86" edge="1">
          <mxGeometry relative="1" as="geometry" />
        </mxCell>
        <mxCell id="aen04neKzYSIUZJzR4fl-52" value="image classification" style="rounded=0;whiteSpace=wrap;html=1;" parent="1" vertex="1">
          <mxGeometry x="270" y="740" width="120" height="60" as="geometry" />
        </mxCell>
        <mxCell id="aen04neKzYSIUZJzR4fl-65" value="Collect data of real enivronment" style="text;html=1;strokeColor=none;fillColor=none;align=center;verticalAlign=middle;whiteSpace=wrap;rounded=0;" parent="1" vertex="1">
          <mxGeometry x="-300" y="280" width="60" height="30" as="geometry" />
        </mxCell>
        <mxCell id="aen04neKzYSIUZJzR4fl-69" value="set the optimized path" style="text;html=1;strokeColor=none;fillColor=none;align=center;verticalAlign=middle;whiteSpace=wrap;rounded=0;" parent="1" vertex="1">
          <mxGeometry x="-110" y="130" width="60" height="30" as="geometry" />
        </mxCell>
        <mxCell id="aen04neKzYSIUZJzR4fl-75" value="Detection" style="text;html=1;strokeColor=none;fillColor=none;align=center;verticalAlign=middle;whiteSpace=wrap;rounded=0;" parent="1" vertex="1">
          <mxGeometry x="-320" y="700" width="80" height="30" as="geometry" />
        </mxCell>
        <mxCell id="aen04neKzYSIUZJzR4fl-103" value="" style="edgeStyle=orthogonalEdgeStyle;rounded=0;orthogonalLoop=1;jettySize=auto;html=1;" parent="1" source="aen04neKzYSIUZJzR4fl-84" target="aen04neKzYSIUZJzR4fl-100" edge="1">
          <mxGeometry relative="1" as="geometry" />
        </mxCell>
        <mxCell id="aen04neKzYSIUZJzR4fl-84" value="Diseased_Plants&lt;br&gt;Damaged /not useful" style="rounded=0;whiteSpace=wrap;html=1;" parent="1" vertex="1">
          <mxGeometry x="300" y="870" width="120" height="60" as="geometry" />
        </mxCell>
        <mxCell id="aen04neKzYSIUZJzR4fl-102" value="" style="edgeStyle=orthogonalEdgeStyle;rounded=0;orthogonalLoop=1;jettySize=auto;html=1;" parent="1" source="aen04neKzYSIUZJzR4fl-85" target="aen04neKzYSIUZJzR4fl-96" edge="1">
          <mxGeometry relative="1" as="geometry" />
        </mxCell>
        <mxCell id="aen04neKzYSIUZJzR4fl-85" value="Weed_Plants" style="rounded=0;whiteSpace=wrap;html=1;" parent="1" vertex="1">
          <mxGeometry x="150" y="870" width="120" height="60" as="geometry" />
        </mxCell>
        <mxCell id="aen04neKzYSIUZJzR4fl-104" value="" style="edgeStyle=orthogonalEdgeStyle;rounded=0;orthogonalLoop=1;jettySize=auto;html=1;" parent="1" source="aen04neKzYSIUZJzR4fl-86" target="aen04neKzYSIUZJzR4fl-101" edge="1">
          <mxGeometry relative="1" as="geometry" />
        </mxCell>
        <mxCell id="aen04neKzYSIUZJzR4fl-86" value="Healthy_Plants" style="rounded=0;whiteSpace=wrap;html=1;" parent="1" vertex="1">
          <mxGeometry x="470" y="880" width="120" height="60" as="geometry" />
        </mxCell>
        <mxCell id="aen04neKzYSIUZJzR4fl-96" value="Remove weed plant from field" style="rounded=0;whiteSpace=wrap;html=1;" parent="1" vertex="1">
          <mxGeometry x="150" y="980" width="120" height="40" as="geometry" />
        </mxCell>
        <mxCell id="aen04neKzYSIUZJzR4fl-99" style="edgeStyle=orthogonalEdgeStyle;rounded=0;orthogonalLoop=1;jettySize=auto;html=1;entryX=0;entryY=0.5;entryDx=0;entryDy=0;" parent="1" source="aen04neKzYSIUZJzR4fl-97" target="aen04neKzYSIUZJzR4fl-25" edge="1">
          <mxGeometry relative="1" as="geometry" />
        </mxCell>
        <mxCell id="aen04neKzYSIUZJzR4fl-97" value="Ajust the wheel rotation" style="rounded=0;whiteSpace=wrap;html=1;" parent="1" vertex="1">
          <mxGeometry x="250" y="365" width="150" height="80" as="geometry" />
        </mxCell>
        <mxCell id="aen04neKzYSIUZJzR4fl-100" value="Inform user to get spray/provide pesticide" style="rounded=0;whiteSpace=wrap;html=1;" parent="1" vertex="1">
          <mxGeometry x="302.5" y="975" width="115" height="45" as="geometry" />
        </mxCell>
        <mxCell id="aen04neKzYSIUZJzR4fl-101" value="no action (continuously running state)" style="rounded=0;whiteSpace=wrap;html=1;" parent="1" vertex="1">
          <mxGeometry x="470" y="970" width="120" height="40" as="geometry" />
        </mxCell>
        <mxCell id="aen04neKzYSIUZJzR4fl-110" value="if(R==0)&lt;br&gt;Continue" style="text;html=1;strokeColor=none;fillColor=none;align=center;verticalAlign=middle;whiteSpace=wrap;rounded=0;" parent="1" vertex="1">
          <mxGeometry x="510" y="590" width="130" height="30" as="geometry" />
        </mxCell>
        <mxCell id="aen04neKzYSIUZJzR4fl-114" value="for(R==Real)&lt;br&gt;X=?&lt;br&gt;Y=?" style="text;html=1;strokeColor=none;fillColor=none;align=center;verticalAlign=middle;whiteSpace=wrap;rounded=0;" parent="1" vertex="1">
          <mxGeometry x="820" y="620" width="60" height="30" as="geometry" />
        </mxCell>
        <mxCell id="aen04neKzYSIUZJzR4fl-119" style="edgeStyle=orthogonalEdgeStyle;rounded=0;orthogonalLoop=1;jettySize=auto;html=1;" parent="1" source="aen04neKzYSIUZJzR4fl-116" target="aen04neKzYSIUZJzR4fl-10" edge="1">
          <mxGeometry relative="1" as="geometry" />
        </mxCell>
        <mxCell id="aen04neKzYSIUZJzR4fl-116" value="&lt;br&gt;&lt;span style=&quot;color: rgb(0, 0, 0); font-family: Helvetica; font-size: 12px; font-style: normal; font-variant-ligatures: normal; font-variant-caps: normal; font-weight: 400; letter-spacing: normal; orphans: 2; text-align: center; text-indent: 0px; text-transform: none; widows: 2; word-spacing: 0px; -webkit-text-stroke-width: 0px; background-color: rgb(251, 251, 251); text-decoration-thickness: initial; text-decoration-style: initial; text-decoration-color: initial; float: none; display: inline !important;&quot;&gt;Reactive_Behaviour&lt;/span&gt;&lt;br&gt;" style="rounded=0;whiteSpace=wrap;html=1;" parent="1" vertex="1">
          <mxGeometry x="5" y="1020" width="112.5" height="50" as="geometry" />
        </mxCell>
        <mxCell id="aen04neKzYSIUZJzR4fl-127" value="with an optimized direction" style="text;html=1;strokeColor=none;fillColor=none;align=center;verticalAlign=middle;whiteSpace=wrap;rounded=0;" parent="1" vertex="1">
          <mxGeometry x="-150" y="380" width="100" height="50" as="geometry" />
        </mxCell>
        <mxCell id="aen04neKzYSIUZJzR4fl-128" value="Control-strategies" style="text;html=1;strokeColor=none;fillColor=none;align=center;verticalAlign=middle;whiteSpace=wrap;rounded=0;" parent="1" vertex="1">
          <mxGeometry x="-70" y="570" width="60" height="30" as="geometry" />
        </mxCell>
        <mxCell id="aen04neKzYSIUZJzR4fl-129" value="Decision -making" style="text;html=1;strokeColor=none;fillColor=none;align=center;verticalAlign=middle;whiteSpace=wrap;rounded=0;" parent="1" vertex="1">
          <mxGeometry x="-140" y="700" width="60" height="30" as="geometry" />
        </mxCell>
        <mxCell id="aen04neKzYSIUZJzR4fl-130" value="the condition will effect the camera images directly" style="text;html=1;strokeColor=none;fillColor=none;align=center;verticalAlign=middle;whiteSpace=wrap;rounded=0;" parent="1" vertex="1">
          <mxGeometry x="-80" y="1120" width="150" height="60" as="geometry" />
        </mxCell>
      </root>
    </mxGraphModel>
  </diagram>
</mxfile>
